<?xml version="1.0" standalone="no"?>
<!DOCTYPE svg PUBLIC "-//W3C//DTD SVG 20010904//EN"
 "http://www.w3.org/TR/2001/REC-SVG-20010904/DTD/svg10.dtd">
<svg version="1.0" xmlns="http://www.w3.org/2000/svg"
 width="880.000000pt" height="562.000000pt" viewBox="0 0 880.000000 562.000000"
 preserveAspectRatio="xMidYMid meet">
<metadata>
Created by potrace 1.16, written by Peter Selinger 2001-2019
</metadata>
<g transform="translate(0.000000,562.000000) scale(0.100000,-0.100000)"
fill="#A8A29E" stroke="none">
<path d="M1115 5092 c-66 -65 -253 -248 -417 -409 l-296 -291 216 -213 c445
-438 747 -735 1497 -1469 424 -415 883 -864 1020 -999 138 -136 365 -359 505
-496 140 -138 364 -358 498 -490 133 -132 247 -242 253 -244 13 -4 -107 -121
1734 1684 286 281 860 843 1275 1250 415 406 810 793 878 860 l123 120 -412
405 c-227 223 -416 407 -421 408 -5 2 -39 -24 -76 -59 -64 -60 -1787 -1747
-2317 -2269 -137 -135 -368 -362 -513 -504 l-263 -259 -147 144 c-81 79 -262
256 -402 394 -140 138 -482 473 -760 745 -278 272 -617 605 -755 740 -488 481
-1086 1065 -1093 1067 -4 2 -61 -50 -127 -115z"/>
</g>
</svg>
