<?xml version="1.0" standalone="no"?>
<!DOCTYPE svg PUBLIC "-//W3C//DTD SVG 20010904//EN"
 "http://www.w3.org/TR/2001/REC-SVG-20010904/DTD/svg10.dtd">
<svg version="1.0" xmlns="http://www.w3.org/2000/svg"
 width="880.000000pt" height="920.000000pt" viewBox="0 0 880.000000 920.000000"
 preserveAspectRatio="xMidYMid meet">
<metadata>
Created by potrace 1.16, written by Peter Selinger 2001-2019
</metadata>
<g transform="translate(0.000000,920.000000) scale(0.100000,-0.100000)"
fill="white" stroke="none">
<path d="M7026 8783 c-89 -19 -247 -81 -334 -132 -179 -104 -51 20 -3008
-2934 l-2139 -2137 130 -128 c72 -70 405 -397 740 -727 336 -330 652 -640 703
-690 l93 -89 2489 2489 2489 2489 71 154 c133 289 165 479 124 749 -79 532
-481 912 -1022 963 -144 13 -253 11 -336 -7z"/>
<path d="M1050 2412 c-546 -1258 -650 -1506 -650 -1543 0 -40 50 -72 100 -63
68 12 517 199 1085 452 224 99 275 124 275 133 0 4 -66 68 -147 142 -222 202
-283 271 -283 318 0 5 11 21 25 34 54 55 102 29 311 -162 77 -71 174 -158 215
-196 l76 -67 152 66 c83 37 151 71 151 76 0 5 -152 163 -338 351 -186 188
-348 356 -360 373 -21 30 -21 31 -2 62 11 17 33 38 50 47 30 15 33 15 53 -2
41 -34 143 -129 417 -388 151 -144 299 -283 328 -310 l53 -48 57 17 c127 40
392 157 392 174 0 14 -566 571 -1435 1414 l-101 98 -424 -978z"/>
</g>
</svg>
