<?xml version="1.0" standalone="no"?>
<!DOCTYPE svg PUBLIC "-//W3C//DTD SVG 20010904//EN"
 "http://www.w3.org/TR/2001/REC-SVG-20010904/DTD/svg10.dtd">
<svg version="1.0" xmlns="http://www.w3.org/2000/svg"
 width="840.000000pt" height="553.000000pt" viewBox="0 0 840.000000 553.000000"
 preserveAspectRatio="xMidYMid meet">
<metadata>
Created by potrace 1.16, written by Peter Selinger 2001-2019
</metadata>
<g transform="translate(0.000000,553.000000) scale(0.100000,-0.100000)"
fill="white" stroke="none">
<path d="M2757 5110 c-114 -20 -214 -98 -265 -208 l-27 -57 -3 -2035 c-2
-1449 1 -2048 8 -2079 19 -78 61 -149 121 -206 68 -65 138 -100 229 -114 88
-14 2657 -15 2755 -1 38 6 93 21 122 35 63 28 152 110 188 170 58 99 55 22 55
1709 l0 1551 -620 620 -620 620 -947 1 c-522 1 -970 -2 -996 -6z m2477 -1218
c-393 -2 -396 -2 -435 20 -22 12 -50 38 -62 58 -22 34 -22 43 -25 440 l-3 405
461 -460 460 -460 -396 -3z m-214 -1132 l0 -100 -820 0 -820 0 0 100 0 100
820 0 820 0 0 -100z m0 -410 l0 -100 -820 0 -820 0 0 100 0 100 820 0 820 0 0
-100z m0 -410 l0 -100 -820 0 -820 0 0 100 0 100 820 0 820 0 0 -100z m-720
-410 l0 -100 -460 0 -460 0 0 100 0 100 460 0 460 0 0 -100z"/>
</g>
</svg>
