<?xml version="1.0" standalone="no"?>
<!DOCTYPE svg PUBLIC "-//W3C//DTD SVG 20010904//EN"
 "http://www.w3.org/TR/2001/REC-SVG-20010904/DTD/svg10.dtd">
<svg version="1.0" xmlns="http://www.w3.org/2000/svg"
 width="900.000000pt" height="900.000000pt" viewBox="0 0 900.000000 900.000000"
 preserveAspectRatio="xMidYMid meet">
<metadata>
Created by potrace 1.16, written by Peter Selinger 2001-2019
</metadata>
<g transform="translate(0.000000,900.000000) scale(0.100000,-0.100000)"
fill="white" stroke="none">
<path d="M5799 7869 c-306 -21 -584 -129 -834 -325 -44 -34 -713 -696 -1486
-1471 -1491 -1492 -1481 -1482 -1616 -1710 -198 -337 -294 -692 -294 -1090 -1
-583 222 -1119 636 -1528 435 -431 1023 -651 1639 -614 420 25 808 167 1157
425 83 61 299 271 1047 1018 l942 941 -198 198 -199 199 -919 -919 c-628 -628
-947 -939 -1008 -985 -218 -163 -461 -263 -740 -304 -146 -22 -388 -14 -531
16 -675 143 -1176 690 -1256 1370 -15 134 -6 364 20 490 57 279 185 536 371
744 154 173 2755 2763 2822 2810 85 59 216 121 315 147 118 32 311 37 433 11
295 -61 540 -249 670 -517 80 -162 95 -230 95 -425 0 -142 -3 -176 -23 -245
-30 -104 -90 -230 -148 -313 -54 -76 -2684 -2717 -2776 -2786 -179 -136 -421
-74 -516 133 -21 45 -26 71 -27 136 0 153 -94 48 1281 1425 673 674 1224 1230
1224 1235 0 13 -372 385 -385 385 -6 0 -571 -561 -1256 -1247 -1329 -1331
-1294 -1293 -1362 -1458 -52 -124 -61 -179 -61 -345 1 -139 3 -164 28 -245 74
-243 234 -439 452 -552 311 -162 687 -130 964 83 30 23 683 672 1451 1441
1287 1289 1401 1406 1462 1499 351 532 349 1184 -4 1715 -84 125 -273 314
-398 398 -226 150 -489 244 -721 257 -47 3 -98 6 -115 7 -16 2 -78 0 -136 -4z"/>
</g>
</svg>
