<?xml version="1.0" standalone="no"?>
<!DOCTYPE svg PUBLIC "-//W3C//DTD SVG 20010904//EN"
 "http://www.w3.org/TR/2001/REC-SVG-20010904/DTD/svg10.dtd">
<svg version="1.0" xmlns="http://www.w3.org/2000/svg"
 width="900.000000pt" height="520.000000pt" viewBox="0 0 900.000000 520.000000"
 preserveAspectRatio="xMidYMid meet">
<metadata>
Created by potrace 1.16, written by Peter Selinger 2001-2019
</metadata>
<g transform="translate(0.000000,520.000000) scale(0.100000,-0.100000)"
fill="#1C1917" stroke="none">
<path d="M4437 5126 c-21 -8 -57 -26 -80 -41 -54 -35 -1654 -1636 -1691 -1692
-18 -27 -29 -58 -30 -80 -1 -35 3 -40 39 -58 38 -19 63 -20 440 -23 l400 -3 1
-827 c1 -746 3 -833 19 -892 54 -206 217 -370 426 -427 57 -16 116 -18 544
-18 438 0 485 2 540 18 160 49 297 159 367 293 73 139 71 104 72 1026 l1 827
400 3 c376 3 402 4 440 23 51 25 55 51 20 113 -28 49 -1471 1504 -1635 1649
-126 111 -194 138 -273 109z"/>
<path d="M1942 1008 l3 -453 27 -75 c72 -197 237 -343 436 -385 102 -22 4084
-22 4186 0 221 47 404 230 451 451 12 54 15 160 15 492 l0 422 -195 0 -195 0
0 -390 c0 -248 -4 -408 -11 -441 -16 -72 -76 -132 -148 -148 -74 -16 -3948
-16 -4022 0 -72 16 -132 76 -148 148 -7 33 -11 193 -11 441 l0 390 -196 0
-195 0 3 -452z"/>
</g>
</svg>
