<?xml version="1.0" standalone="no"?>
<!DOCTYPE svg PUBLIC "-//W3C//DTD SVG 20010904//EN"
 "http://www.w3.org/TR/2001/REC-SVG-20010904/DTD/svg10.dtd">
<svg version="1.0" xmlns="http://www.w3.org/2000/svg"
 width="860.000000pt" height="637.000000pt" viewBox="0 0 860.000000 637.000000"
 preserveAspectRatio="xMidYMid meet">
<metadata>
Created by potrace 1.16, written by Peter Selinger 2001-2019
</metadata>
<g transform="translate(0.000000,637.000000) scale(0.100000,-0.100000)"
fill="#000000" stroke="none">
<path d="M2820 5963 c-460 -28 -908 -272 -1190 -648 -247 -329 -351 -702 -320
-1144 35 -490 200 -895 538 -1314 186 -232 436 -475 972 -947 349 -307 471
-420 681 -630 263 -264 494 -532 653 -758 67 -95 91 -115 146 -115 55 0 81 21
141 111 80 119 246 334 360 467 160 187 626 645 929 915 649 576 893 820 1099
1093 280 374 428 753 461 1186 33 427 -74 809 -320 1136 -419 559 -1148 788
-1815 569 -312 -103 -620 -330 -807 -596 -23 -32 -44 -58 -48 -58 -4 0 -25 26
-48 58 -191 271 -502 498 -822 600 -206 65 -392 88 -610 75z m350 -250 c390
-63 756 -316 959 -663 87 -149 93 -158 118 -169 36 -16 95 -13 120 7 12 9 43
55 69 102 177 323 453 560 783 670 606 203 1264 -23 1615 -555 175 -265 248
-556 225 -900 -19 -273 -73 -471 -196 -720 -168 -338 -445 -658 -1018 -1170
-104 -94 -279 -251 -390 -349 -233 -209 -646 -619 -796 -791 -110 -127 -220
-263 -307 -382 l-54 -73 -107 138 c-290 369 -627 708 -1246 1252 -402 353
-615 554 -790 745 -393 430 -584 846 -614 1340 -22 359 48 643 224 910 309
467 843 698 1405 608z"/>
</g>
</svg>
