<?xml version="1.0" standalone="no"?>
<!DOCTYPE svg PUBLIC "-//W3C//DTD SVG 20010904//EN"
 "http://www.w3.org/TR/2001/REC-SVG-20010904/DTD/svg10.dtd">
<svg version="1.0" xmlns="http://www.w3.org/2000/svg"
 width="640.000000pt" height="360.000000pt" viewBox="0 0 640.000000 360.000000"
 preserveAspectRatio="xMidYMid meet">
<metadata>
Created by potrace 1.16, written by Peter Selinger 2001-2019
</metadata>
<g transform="translate(0.000000,360.000000) scale(0.100000,-0.100000)"
fill="#000000" stroke="none">
<path d="M2470 2537 c0 -5 -5 -5 -12 -1 -7 4 -8 3 -4 -5 9 -14 10 -247 1 -261
-4 -7 132 -10 412 -11 230 -1 425 0 433 1 35 4 41 25 41 140 1 107 -5 133 -32
136 -5 1 -10 2 -11 3 -12 6 -828 4 -828 -2z"/>
<path d="M3675 2540 c6 -9 4 -12 -6 -8 -12 5 -14 -18 -14 -133 l0 -139 145 0
145 0 0 139 0 139 -129 1 c-71 1 -134 5 -139 8 -6 4 -7 1 -2 -7z"/>
<path d="M3198 1942 l-737 -2 -3 -140 -3 -140 745 0 745 0 -2 141 c-1 78 -3
142 -5 143 -2 0 -335 0 -740 -2z"/>
<path d="M2462 1343 c-11 -4 -2 -256 10 -270 8 -10 79 -13 292 -13 l281 0 0
140 0 139 -288 3 c-158 2 -290 2 -295 1z"/>
<path d="M3357 1208 c1 -73 2 -136 2 -141 1 -4 133 -7 294 -7 l292 1 -5 120
c-3 65 -3 119 0 119 3 0 6 9 6 20 0 20 -7 20 -296 20 l-295 0 2 -132z"/>
</g>
</svg>
