<?xml version="1.0" standalone="no"?>
<!DOCTYPE svg PUBLIC "-//W3C//DTD SVG 20010904//EN"
 "http://www.w3.org/TR/2001/REC-SVG-20010904/DTD/svg10.dtd">
<svg version="1.0" xmlns="http://www.w3.org/2000/svg"
 width="532.000000pt" height="542.000000pt" viewBox="0 0 532.000000 542.000000"
 preserveAspectRatio="xMidYMid meet">
<metadata>
Created by potrace 1.16, written by Peter Selinger 2001-2019
</metadata>
<g transform="translate(0.000000,542.000000) scale(0.100000,-0.100000)"
fill="#1C1917" stroke="none">
<path d="M1985 4423 c-180 -72 -298 -276 -337 -586 l-12 -96 -405 -3 -406 -3
-77 -27 c-176 -59 -290 -177 -328 -338 -11 -43 -13 -267 -13 -1050 0 -977 0
-996 20 -1057 39 -117 131 -211 250 -256 l58 -22 1870 -3 c1397 -2 1884 0
1925 8 204 44 354 192 379 377 13 94 13 1890 0 1972 -27 172 -125 304 -277
374 -45 21 -61 22 -418 25 l-372 3 -7 47 c-51 358 -197 579 -420 638 -39 11
-192 14 -720 13 -590 0 -675 -2 -710 -16z m910 -991 c287 -79 510 -245 654
-487 93 -156 139 -311 148 -495 25 -517 -330 -975 -842 -1085 -109 -24 -323
-24 -430 -1 -307 67 -568 262 -719 538 -51 92 -103 258 -117 372 -66 536 284
1036 813 1161 93 22 119 24 263 21 117 -3 179 -10 230 -24z m1316 -274 c100
-56 126 -183 58 -278 -89 -122 -275 -99 -334 42 -70 169 115 327 276 236z"/>
<path d="M2520 3094 c-125 -24 -261 -94 -352 -179 -99 -94 -166 -201 -204
-330 -24 -83 -25 -266 -1 -355 77 -282 299 -478 591 -521 208 -31 445 56 595
218 133 144 198 321 188 508 -7 113 -24 180 -73 278 -83 169 -238 302 -417
359 -61 19 -268 33 -327 22z"/>
</g>
</svg>
