<?xml version="1.0" standalone="no"?>
<!DOCTYPE svg PUBLIC "-//W3C//DTD SVG 20010904//EN"
 "http://www.w3.org/TR/2001/REC-SVG-20010904/DTD/svg10.dtd">
<svg version="1.0" xmlns="http://www.w3.org/2000/svg"
 width="840.000000pt" height="680.000000pt" viewBox="0 0 840.000000 680.000000"
 preserveAspectRatio="xMidYMid meet">
<metadata>
Created by potrace 1.16, written by Peter Selinger 2001-2019
</metadata>
<g transform="translate(0.000000,680.000000) scale(0.100000,-0.100000)"
fill="#E7E5E4" stroke="none">
<path d="M3974 6196 c-115 -111 -756 -723 -1424 -1360 -668 -637 -1232 -1175
-1253 -1195 l-38 -37 152 -185 c83 -101 153 -186 154 -188 2 -2 201 185 442
415 241 231 833 796 1316 1257 l878 839 197 -189 c108 -104 602 -576 1097
-1048 495 -472 998 -953 1118 -1069 125 -120 221 -205 226 -200 5 5 75 90 155
188 l147 179 -28 27 c-15 15 -284 272 -598 571 -313 299 -919 877 -1345 1284
-426 407 -815 778 -863 824 -48 47 -96 85 -106 86 -10 1 -104 -82 -227 -199z"/>
<path d="M2140 5404 l0 -596 363 356 364 356 6 167 c4 91 7 199 7 240 l0 73
-370 0 -370 0 0 -596z"/>
<path d="M3168 4337 l-1028 -982 0 -1438 0 -1437 34 -38 34 -37 671 -3 671 -2
0 632 c0 594 1 635 18 667 10 19 34 43 53 53 31 17 70 18 579 18 509 0 548 -1
579 -18 19 -10 43 -34 53 -53 17 -32 18 -73 18 -666 l0 -633 666 0 666 0 39
39 39 39 0 1438 0 1439 -388 370 c-213 203 -674 644 -1025 980 -351 335 -642
611 -645 612 -4 1 -469 -440 -1034 -980z"/>
</g>
</svg>
